<!-- Generated by IcoMoon.io -->
<svg version="1.1" xmlns="http://www.w3.org/2000/svg" width="36" height="32" viewBox="0 0 36 32">
<title>likedvideos</title>
<path fill="#606060" d="M0 32h6.4v-19.2h-6.4v19.2zM35.2 14.4c0-1.771-1.451-3.2-3.2-3.2h-10.091l1.493-7.317 0.064-0.512c0-0.64-0.277-1.28-0.704-1.707l-1.707-1.664-10.496 10.56c-0.64 0.555-0.96 1.365-0.96 2.24v16c0 1.749 1.429 3.2 3.2 3.2h14.4c1.323 0 2.453-0.811 2.944-1.92l4.843-11.307c0.128-0.384 0.213-0.768 0.213-1.173v-3.2z"></path>
</svg>
